<?xml version="1.0" ?><!DOCTYPE svg  PUBLIC '-//W3C//DTD SVG 1.1//EN'  'http://www.w3.org/Graphics/SVG/1.1/DTD/svg11.dtd'><svg height="32px" style="shape-rendering:geometricPrecision; text-rendering:geometricPrecision; image-rendering:optimizeQuality; fill-rule:evenodd; clip-rule:evenodd" version="1.1" viewBox="0 0 512 512" width="32px" xml:space="preserve" xmlns="http://www.w3.org/2000/svg" xmlns:xlink="http://www.w3.org/1999/xlink" xmlns:xodm="http://www.corel.com/coreldraw/odm/2003"><defs><style type="text/css">
   <![CDATA[
    .fil0 {fill:black}
   ]]>
  </style></defs><g id="Layer_x0020_1"><path class="fil0" d="M256 0c141.39,0 256,114.61 256,256 0,141.39 -114.61,256 -256,256 -141.39,0 -256,-114.61 -256,-256 0,-141.39 114.61,-256 256,-256zm35.02 248.04c-3.06,-7.08 -6.25,-14.15 -9.66,-21.14 29.07,-12.59 52.43,-29.69 69.84,-51.37 16.98,20.06 27.64,45.55 29.21,73.44 -32.41,-5.31 -62.21,-5.6 -89.39,-0.93zm34.23 111.67c-5.51,-29.61 -13.6,-58.56 -24.16,-86.8 23.61,-3.34 49.59,-2.47 78.02,2.47 -5.5,35.07 -25.52,65.36 -53.86,84.33zm-145.82 -5.4c24.78,-38.88 56.42,-64.19 95.62,-75.87 11.67,30.47 20.26,61.8 25.72,93.89 -40.83,15.79 -86.72,9.01 -121.34,-18.02zm-48.03 -101.52c48.43,-0.08 90.22,-5.64 125.22,-16.65 2.94,5.97 5.74,11.97 8.43,18.03 -42.52,13.28 -77.57,40.53 -104.92,81.55 -19.68,-23.62 -29.48,-52.27 -28.73,-82.93zm68.31 -107.99c16.76,21.93 31.6,44.54 44.51,67.73 -30.59,9.01 -67.09,13.63 -109.3,13.92 8.72,-35.68 32.74,-65.35 64.79,-81.65zm132.35 12.52c-15.16,19.55 -36.09,35.01 -62.76,46.31 -12.79,-23.42 -27.39,-46.27 -43.9,-68.44 37.36,-9.52 76.01,-1.55 106.66,22.13zm-76.06 -52.36c-83.41,0 -151.04,67.63 -151.04,151.04 0,83.41 67.63,151.04 151.04,151.04 83.42,0 151.04,-67.63 151.04,-151.04 0,-83.41 -67.63,-151.04 -151.04,-151.04z"/></g></svg>